<svg width="200" height="120" viewBox="0 0 200 120" xmlns="http://www.w3.org/2000/svg">
  <defs>
    <linearGradient id="pattyBase" x1="0" y1="0" x2="0" y2="1">
      <stop offset="0" stop-color="#6f301d"/>
      <stop offset="0.5" stop-color="#4a1e13"/>
      <stop offset="1" stop-color="#2c120b"/>
    </linearGradient>
    <linearGradient id="pattyGloss" x1="0" y1="0" x2="1" y2="0">
      <stop offset="0" stop-color="rgba(255,255,255,0.35)"/>
      <stop offset="0.4" stop-color="rgba(255,255,255,0.1)"/>
      <stop offset="1" stop-color="rgba(255,255,255,0)"/>
    </linearGradient>
  </defs>
  <g transform="translate(0,8)">
    <path d="M18 30c18 12 48 18 82 18s64-6 82-18l12 48c-18 18-52 28-94 28s-76-10-94-28z" fill="url(#pattyBase)"/>
    <path d="M20 40c16 10 44 16 80 16s64-6 80-16" fill="none" stroke="#b56a37" stroke-width="8" stroke-linecap="round" stroke-opacity="0.35"/>
    <path d="M18 30c18 12 48 18 82 18s64-6 82-18" fill="url(#pattyGloss)"/>
    <g fill="#8f4b25" opacity="0.55">
      <ellipse cx="50" cy="74" rx="9" ry="4"/>
      <ellipse cx="90" cy="82" rx="7" ry="3"/>
      <ellipse cx="140" cy="76" rx="10" ry="4"/>
      <ellipse cx="110" cy="66" rx="8" ry="3"/>
    </g>
  </g>
</svg>
