<svg viewBox="0 0 64 64" xmlns="http://www.w3.org/2000/svg">
  <defs>
    <linearGradient id="enemyWing" x1="0%" y1="0%" x2="100%" y2="0%">
      <stop offset="0%" stop-color="#ede7f6"/>
      <stop offset="100%" stop-color="#d1c4e9"/>
    </linearGradient>
    <linearGradient id="enemyArmor" x1="0%" y1="0%" x2="0%" y2="100%">
      <stop offset="0%" stop-color="#ff8a80"/>
      <stop offset="100%" stop-color="#d50000"/>
    </linearGradient>
    <linearGradient id="enemyPlume" x1="0%" y1="0%" x2="100%" y2="0%">
      <stop offset="0%" stop-color="#80d8ff"/>
      <stop offset="100%" stop-color="#0091ea"/>
    </linearGradient>
    <linearGradient id="enemySaddle" x1="0%" y1="0%" x2="0%" y2="100%">
      <stop offset="0%" stop-color="#6d4c41"/>
      <stop offset="100%" stop-color="#3e2723"/>
    </linearGradient>
    <linearGradient id="enemyBird" x1="0%" y1="0%" x2="0%" y2="100%">
      <stop offset="0%" stop-color="#80cbc4"/>
      <stop offset="100%" stop-color="#00695c"/>
    </linearGradient>
  </defs>
  <g fill="none" stroke-linecap="round" stroke-linejoin="round">
    <ellipse cx="32" cy="42" rx="22" ry="14" fill="url(#enemyBird)" stroke="#004d40" stroke-width="2"/>
    <path d="M16 38c-5 2-9 7-10 11 5-2 10-2 14 1" fill="none" stroke="#004d40" stroke-width="2"/>
    <path d="M52 45c5-2 9-7 10-12-5 1-9 3-12 6" fill="none" stroke="#004d40" stroke-width="2"/>
    <path d="M20 34c-2-7 4-15 12-17 10-2 17 3 20 10" fill="url(#enemyWing)" stroke="#b39ddb" stroke-width="2"/>
    <ellipse cx="48" cy="36" rx="6" ry="6" fill="#fffde7" stroke="#004d40" stroke-width="1.5"/>
    <circle cx="50.5" cy="35" r="1.5" fill="#1a237e"/>
    <path d="M50 37c3 0 7 1 8 4" stroke="#1a237e" stroke-width="1.5"/>
    <path d="M30 18l-4 12c4 4 11 4 16 0l-3-12" fill="url(#enemyArmor)" stroke="#7f0000" stroke-width="2"/>
    <path d="M32 10l-2 9 9 4 2-11" fill="#212121" stroke="#000" stroke-width="1.5"/>
    <path d="M30 6c2-3 7-4 10-1 3 2 4 7 1 10" fill="url(#enemyPlume)" stroke="#01579b" stroke-width="1.5"/>
    <path d="M26 30l-5 8 7 2" fill="url(#enemySaddle)" stroke="#3e2723" stroke-width="2"/>
    <path d="M18 50l-2 10" stroke="#3e2723" stroke-width="3"/>
    <path d="M54 50l3 10" stroke="#3e2723" stroke-width="3"/>
    <path d="M40 28l20-7" stroke="#80d8ff" stroke-width="3"/>
    <path d="M24 32l-14 6" stroke="#ffab40" stroke-width="3"/>
    <path d="M38 24l4-2" stroke="#80d8ff" stroke-width="3"/>
  </g>
</svg>
