<svg width="120" height="140" viewBox="0 0 120 140" xmlns="http://www.w3.org/2000/svg">
  <defs>
    <linearGradient id="cup" x1="0" y1="0" x2="0" y2="1">
      <stop offset="0" stop-color="#9cf6ff"/>
      <stop offset="1" stop-color="#3d8bff"/>
    </linearGradient>
    <linearGradient id="straw" x1="0" y1="0" x2="0" y2="1">
      <stop offset="0" stop-color="#ffb3ff"/>
      <stop offset="1" stop-color="#ff5ec4"/>
    </linearGradient>
  </defs>
  <path d="M46 10h28l8 16H38z" fill="#ffffff" stroke="#8fd8ff" stroke-width="6" stroke-linejoin="round"/>
  <path d="M56 0h8l18 40h-10z" fill="url(#straw)" stroke="#d44fb4" stroke-width="4" stroke-linejoin="round"/>
  <path d="M34 28h52c10 0 18 8 18 18l-10 58c-4 18-16 30-34 30H60c-18 0-30-12-34-30l-10-58c0-10 8-18 18-18z" fill="url(#cup)" stroke="#1e6cd6" stroke-width="6" stroke-linejoin="round"/>
  <path d="M32 44h56" stroke="#ffffff" stroke-opacity="0.6" stroke-width="8" stroke-linecap="round"/>
  <g fill="#dff8ff">
    <ellipse cx="46" cy="82" rx="10" ry="8"/>
    <ellipse cx="74" cy="82" rx="10" ry="8"/>
  </g>
  <g fill="#1d2b4d">
    <circle cx="46" cy="82" r="4"/>
    <circle cx="74" cy="82" r="4"/>
    <path d="M42 98c6 8 12 10 18 10s12-2 18-10" stroke="#1d2b4d" stroke-width="6" stroke-linecap="round" fill="none"/>
  </g>
  <path d="M34 110c10 6 20 10 26 10s16-4 26-10" stroke="#a8f6ff" stroke-width="6" stroke-linecap="round" fill="none"/>
</svg>
