<svg xmlns="http://www.w3.org/2000/svg" viewBox="0 0 960 720">
  <defs>
    <linearGradient id="night" x1="0%" y1="0%" x2="0%" y2="100%">
      <stop offset="0%" stop-color="#090324" />
      <stop offset="50%" stop-color="#150a47" />
      <stop offset="100%" stop-color="#02000f" />
    </linearGradient>
    <linearGradient id="grid" x1="0%" y1="0%" x2="100%" y2="0%">
      <stop offset="0%" stop-color="#46f6ff" />
      <stop offset="100%" stop-color="#ff7dfa" />
    </linearGradient>
  </defs>
  <rect width="960" height="720" fill="url(#night)" />
  <g opacity="0.35" stroke="url(#grid)" stroke-width="2">
    <path d="M260 120v520" />
    <path d="M320 120v520" />
    <path d="M380 120v520" />
    <path d="M440 120v520" />
    <path d="M500 120v520" />
    <path d="M560 120v520" />
    <path d="M620 120v520" />
    <path d="M200 180h560" />
    <path d="M200 240h560" />
    <path d="M200 300h560" />
    <path d="M200 360h560" />
    <path d="M200 420h560" />
    <path d="M200 480h560" />
    <path d="M200 540h560" />
    <path d="M200 600h560" />
  </g>
  <g>
    <rect x="320" y="140" width="120" height="120" rx="16" fill="#ff66d4" />
    <rect x="320" y="260" width="120" height="120" rx="16" fill="#ff9f58" />
    <rect x="320" y="380" width="120" height="120" rx="16" fill="#4afff2" />
    <rect x="320" y="500" width="120" height="120" rx="16" fill="#ffe86a" />
  </g>
  <g>
    <rect x="460" y="140" width="180" height="120" rx="16" fill="#45f6ff" />
    <rect x="460" y="260" width="120" height="120" rx="16" fill="#ff7efd" />
    <rect x="580" y="260" width="60" height="120" rx="16" fill="#ffd94a" />
    <rect x="460" y="380" width="180" height="120" rx="16" fill="#ff4ea5" />
    <rect x="580" y="500" width="60" height="120" rx="16" fill="#46ff9f" />
    <rect x="460" y="500" width="120" height="120" rx="16" fill="#6178ff" />
  </g>
  <g opacity="0.8" fill="#ffffff">
    <rect x="320" y="620" width="180" height="12" rx="6" />
    <rect x="540" y="620" width="120" height="12" rx="6" />
  </g>
  <g opacity="0.45" fill="#46f6ff">
    <circle cx="240" cy="600" r="14" />
    <circle cx="700" cy="600" r="16" />
    <circle cx="780" cy="540" r="12" />
    <circle cx="220" cy="520" r="10" />
  </g>
  <g opacity="0.6" fill="#ff83ff">
    <circle cx="260" cy="200" r="10" />
    <circle cx="700" cy="260" r="12" />
    <circle cx="220" cy="320" r="14" />
    <circle cx="780" cy="380" r="16" />
    <circle cx="220" cy="440" r="12" />
  </g>
</svg>
