<svg xmlns="http://www.w3.org/2000/svg" viewBox="0 0 960 720">
  <defs>
    <linearGradient id="arena" x1="0%" y1="0%" x2="0%" y2="100%">
      <stop offset="0%" stop-color="#0c0428" />
      <stop offset="50%" stop-color="#1f0a48" />
      <stop offset="100%" stop-color="#050012" />
    </linearGradient>
    <linearGradient id="ground" x1="0%" y1="0%" x2="100%" y2="0%">
      <stop offset="0%" stop-color="#7affff" />
      <stop offset="100%" stop-color="#ff7fed" />
    </linearGradient>
    <linearGradient id="tank-blue" x1="0%" y1="0%" x2="100%" y2="100%">
      <stop offset="0%" stop-color="#46f6ff" />
      <stop offset="100%" stop-color="#004dff" />
    </linearGradient>
    <linearGradient id="tank-orange" x1="0%" y1="0%" x2="100%" y2="100%">
      <stop offset="0%" stop-color="#ffec6a" />
      <stop offset="100%" stop-color="#ff5f2a" />
    </linearGradient>
  </defs>
  <rect width="960" height="720" fill="url(#arena)" />
  <g opacity="0.35" stroke="url(#ground)" stroke-width="3">
    <path d="M160 540h640" />
    <path d="M160 480h640" stroke-dasharray="24 16" />
    <path d="M160 600h640" stroke-dasharray="18 18" />
  </g>
  <g opacity="0.4" fill="#46f6ff">
    <circle cx="220" cy="480" r="14" />
    <circle cx="360" cy="520" r="12" />
    <circle cx="520" cy="500" r="16" />
    <circle cx="680" cy="520" r="12" />
    <circle cx="780" cy="480" r="14" />
  </g>
  <g>
    <path d="M220 520c40-40 100-40 140 0" stroke="#5af7ff" stroke-width="14" stroke-linecap="round" />
    <path d="M600 520c40-40 100-40 140 0" stroke="#ff84ff" stroke-width="14" stroke-linecap="round" />
  </g>
  <g>
    <g transform="translate(260,420)">
      <rect x="-70" y="60" width="140" height="50" rx="18" fill="url(#tank-blue)" />
      <rect x="-40" y="34" width="80" height="40" rx="18" fill="#1a88ff" />
      <rect x="12" y="20" width="110" height="24" rx="12" fill="#54f7ff" />
      <rect x="110" y="26" width="80" height="12" rx="6" fill="#ffffff" />
      <circle cx="-36" cy="110" r="16" fill="#020b26" />
      <circle cx="36" cy="110" r="16" fill="#020b26" />
      <circle cx="-36" cy="110" r="8" fill="#53f8ff" />
      <circle cx="36" cy="110" r="8" fill="#53f8ff" />
    </g>
    <g transform="translate(620,420)">
      <rect x="-70" y="60" width="140" height="50" rx="18" fill="url(#tank-orange)" />
      <rect x="-40" y="34" width="80" height="40" rx="18" fill="#ff8f52" />
      <rect x="-122" y="24" width="110" height="24" rx="12" fill="#ffd974" />
      <rect x="-210" y="30" width="90" height="12" rx="6" fill="#fff7c1" />
      <circle cx="-36" cy="110" r="16" fill="#260104" />
      <circle cx="36" cy="110" r="16" fill="#260104" />
      <circle cx="-36" cy="110" r="8" fill="#ff9f61" />
      <circle cx="36" cy="110" r="8" fill="#ff9f61" />
    </g>
  </g>
  <g opacity="0.7" stroke="#ff92ff" stroke-width="10" stroke-linecap="round">
    <path d="M360 440l140-60" />
    <path d="M600 440l-140-60" />
  </g>
  <g opacity="0.5" fill="#ff7dfa">
    <circle cx="480" cy="380" r="16" />
    <circle cx="430" cy="360" r="10" />
    <circle cx="530" cy="360" r="10" />
  </g>
</svg>
