<svg xmlns="http://www.w3.org/2000/svg" viewBox="0 0 512 512">
  <defs>
    <linearGradient id="bg" x1="0%" y1="0%" x2="100%" y2="100%">
      <stop offset="0%" stop-color="#0b0f2a" />
      <stop offset="100%" stop-color="#1a093d" />
    </linearGradient>
    <linearGradient id="ball" x1="0%" y1="0%" x2="100%" y2="100%">
      <stop offset="0%" stop-color="#67f7ff" />
      <stop offset="100%" stop-color="#ff6bcb" />
    </linearGradient>
  </defs>
  <rect width="512" height="512" rx="42" fill="url(#bg)" />
  <g opacity="0.65">
    <rect x="64" y="88" width="96" height="42" rx="12" fill="#ff6bcb" />
    <rect x="184" y="88" width="96" height="42" rx="12" fill="#67f7ff" />
    <rect x="304" y="88" width="96" height="42" rx="12" fill="#fdbb2d" />
    <rect x="64" y="150" width="96" height="42" rx="12" fill="#a76bff" />
    <rect x="184" y="150" width="96" height="42" rx="12" fill="#ff9f43" />
    <rect x="304" y="150" width="96" height="42" rx="12" fill="#5cffb0" />
  </g>
  <g transform="translate(0,40)">
    <rect x="104" y="288" width="304" height="30" rx="15" fill="#2f3df3" />
    <rect x="152" y="304" width="208" height="30" rx="15" fill="#67f7ff" opacity="0.85" />
  </g>
  <circle cx="256" cy="252" r="26" fill="url(#ball)" />
  <path d="M256 226c54-54 118-34 148-14" stroke="#ff6bcb" stroke-width="8" stroke-linecap="round" fill="none" opacity="0.6" />
</svg>
