<svg xmlns="http://www.w3.org/2000/svg" viewBox="0 0 128 160">
  <defs>
    <linearGradient id="player-body" x1="0" y1="0" x2="0" y2="1">
      <stop offset="0%" stop-color="#ff6b9f"/>
      <stop offset="45%" stop-color="#ff2f5e"/>
      <stop offset="100%" stop-color="#c4003f"/>
    </linearGradient>
    <linearGradient id="player-nose" x1="0" y1="0" x2="1" y2="1">
      <stop offset="0%" stop-color="#ffde8a"/>
      <stop offset="100%" stop-color="#ff9c40"/>
    </linearGradient>
    <linearGradient id="player-seat" x1="0" y1="0" x2="0" y2="1">
      <stop offset="0%" stop-color="#2d1e55"/>
      <stop offset="100%" stop-color="#150930"/>
    </linearGradient>
  </defs>
  <rect x="0" y="0" width="128" height="160" fill="none"/>
  <g transform="translate(8 6)">
    <path d="M52 0h8c8 0 16 6 20 14l18 32c4 7 4 15 0 22l-8 14c-2 4-2 8 0 12l10 18c4 7 4 16-1 23l-8 12c-6 8-15 13-25 13H54c-10 0-19-5-25-13l-8-12c-5-7-5-16-1-23l10-18c2-4 2-8 0-12l-8-14c-4-7-4-15 0-22l18-32C36 6 44 0 52 0Z" fill="url(#player-body)"/>
    <path d="M28 54h64l10 22H18l10-22Z" fill="#ffd75f" opacity="0.4"/>
    <path d="M32 18h56l14 24H18l14-24Z" fill="#ff94b4" opacity="0.35"/>
    <path d="M44 34h40l10 18H34l10-18Z" fill="#ffebf2" opacity="0.18"/>
    <path d="M48 10h32c5 0 9 3 11 7l12 20H25l12-20c2-4 6-7 11-7Z" fill="url(#player-seat)"/>
    <path d="M54 40h20c5 0 9 3 11 8l8 18c2 4 2 8 0 12l-8 18c-2 5-6 8-11 8H54c-5 0-9-3-11-8l-8-18c-2-4-2-8 0-12l8-18c2-5 6-8 11-8Z" fill="#1a0f32" opacity="0.7"/>
    <path d="M40 70h40l16 30H24l16-30Z" fill="#ffb84b" opacity="0.35"/>
    <path d="M52 120h24l10 24H42l10-24Z" fill="url(#player-nose)"/>
    <ellipse cx="64" cy="118" rx="26" ry="10" fill="#ffa43c" opacity="0.75"/>
    <path d="M64 128c18 0 32 8 36 20l-6 10c-4 8-12 12-21 12H55c-9 0-17-4-21-12l-6-10c4-12 18-20 36-20Z" fill="#f8f4ff" opacity="0.18"/>
    <g fill="#111325">
      <path d="M6 64h16c4 0 7 2 9 5l7 13c3 5 3 10 0 15l-7 13c-2 3-5 5-9 5H6c-4 0-7-2-9-5l-5-8c-3-5-3-10 0-15l5-8c2-3 5-5 9-5Z"/>
      <path d="M114 64h-16c-4 0-7 2-9 5l-7 13c-3 5-3 10 0 15l7 13c2 3 5 5 9 5h16c4 0 7-2 9-5l5-8c3-5 3-10 0-15l-5-8c-2-3-5-5-9-5Z"/>
    </g>
    <g fill="#373c5f">
      <ellipse cx="16" cy="96" rx="10" ry="6"/>
      <ellipse cx="112" cy="96" rx="10" ry="6"/>
    </g>
    <path d="M50 24h28l6 10H44l6-10Z" fill="#ffefc7" opacity="0.7"/>
    <path d="M56 44h16c3 0 6 2 7 5l4 8H45l4-8c1-3 4-5 7-5Z" fill="#1f2442"/>
    <circle cx="64" cy="54" r="6" fill="#2f385e"/>
    <path d="M44 140h40l4 12H40l4-12Z" fill="#ffe7a3" opacity="0.7"/>
  </g>
</svg>
